<svg width="233.000000" height="61.000000" viewBox="0 0 233 61" fill="none" xmlns="http://www.w3.org/2000/svg" xmlns:xlink="http://www.w3.org/1999/xlink">
	<desc>
			Created with Pixso.
	</desc>
	<defs/>
	<path d="M16.13 38.62Q16.33 38.7 16.45 38.7Q16.73 38.7 16.94 38.58Q17.01 38.53 17.08 38.47Q17.17 38.39 17.23 38.28Q17.33 38.1 17.33 37.86L17.33 33.32Q17.33 32.75 17.05 32.41Q17 32.36 16.95 32.32Q16.57 31.98 16.15 31.68L7 25.69L16.15 19.68Q16.35 19.54 16.54 19.39Q16.75 19.22 16.95 19.03Q17 18.99 17.04 18.94Q17.33 18.59 17.33 18L17.33 13.5Q17.33 13.17 17.17 12.96Q17.13 12.91 17.08 12.86Q17 12.78 16.91 12.73Q16.71 12.62 16.45 12.62Q16.33 12.62 16.13 12.7Q15.95 12.79 15.73 12.91L0.62 23.2Q0.02 23.62 -0.29 24Q-0.3 24.01 -0.3 24.01Q-0.6 24.39 -0.6 25.01L-0.6 26.31Q-0.6 26.92 -0.31 27.31Q-0.3 27.32 -0.29 27.34Q0.02 27.74 0.62 28.16L15.73 38.45Q15.95 38.53 16.13 38.62Z" fill="#D77CE6" fill-opacity="1.000000" fill-rule="evenodd"/>
	<path d="M17.36 22.37Q17.16 22.29 17.04 22.29Q16.76 22.29 16.55 22.41Q16.48 22.46 16.41 22.52Q16.32 22.61 16.26 22.71Q16.16 22.89 16.16 23.13L16.16 27.67Q16.16 28.24 16.44 28.58Q16.49 28.63 16.54 28.67Q16.92 29.01 17.34 29.31L26.49 35.3L17.34 41.31Q17.14 41.45 16.95 41.6Q16.74 41.77 16.54 41.96Q16.49 42 16.45 42.05Q16.16 42.4 16.16 43L16.16 47.49Q16.16 47.82 16.32 48.03Q16.36 48.08 16.41 48.13Q16.49 48.21 16.58 48.26Q16.78 48.37 17.04 48.37Q17.16 48.37 17.36 48.29Q17.54 48.2 17.76 48.08L32.87 37.79Q33.47 37.37 33.78 36.99Q33.79 36.98 33.79 36.98Q34.09 36.6 34.09 35.98L34.09 34.68Q34.09 34.07 33.8 33.68Q33.79 33.67 33.78 33.65Q33.47 33.25 32.87 32.83L17.76 22.54Q17.54 22.46 17.36 22.37Z" fill="#753DCD" fill-opacity="1.000000" fill-rule="evenodd"/>
	<path d="M114.81 35.64C115.63 36.41 116.77 36.79 118.22 36.79C118.89 36.79 119.54 36.69 120.17 36.48L120 33.58C119.89 33.64 119.73 33.7 119.52 33.74C119.33 33.79 119.13 33.82 118.94 33.82Q118.28 33.82 117.87 33.49Q117.8 33.44 117.74 33.38C117.47 33.08 117.33 32.66 117.33 32.11L117.33 18.79L113.59 18.79L113.59 32.33C113.59 33.75 114 34.86 114.81 35.64ZM178.01 24.94C177.04 23.98 175.75 23.5 174.15 23.5C173.32 23.5 172.55 23.63 171.85 23.9C171.14 24.16 170.54 24.54 170.05 25.03L170.05 18.79L166.3 18.79L166.3 36.6L170.05 36.6L170.05 30.22C170.05 29.06 170.33 28.2 170.89 27.62C171.45 27.03 172.2 26.74 173.14 26.74C173.99 26.74 174.64 26.99 175.09 27.5Q175.76 28.25 175.76 29.78L175.76 36.6L179.5 36.6L179.5 29.21Q179.5 26.52 178.16 25.08Q178.09 25.01 178.01 24.94ZM215.71 35.64C216.53 36.41 217.67 36.79 219.12 36.79C219.79 36.79 220.44 36.69 221.07 36.48L220.9 33.58C220.79 33.64 220.63 33.7 220.42 33.74C220.23 33.79 220.03 33.82 219.84 33.82C219.33 33.82 218.93 33.67 218.64 33.38Q218.64 33.38 218.63 33.38Q218.23 32.92 218.23 32.11L218.23 18.79L214.49 18.79L214.49 32.33C214.49 33.75 214.9 34.86 215.71 35.64ZM138.83 36.36C140.08 36.71 141.37 36.89 142.69 36.89C144.23 36.89 145.53 36.66 146.61 36.19C147.68 35.73 148.48 35.1 149.01 34.32C149.55 33.52 149.82 32.64 149.82 31.68C149.82 30.56 149.53 29.67 148.93 29.02C148.36 28.36 147.66 27.88 146.85 27.58C146.03 27.27 144.98 26.97 143.7 26.66C142.47 26.39 141.55 26.12 140.94 25.85C140.35 25.56 140.06 25.13 140.06 24.55C140.06 23.98 140.31 23.51 140.82 23.16C141.35 22.81 142.16 22.63 143.25 22.63C144.8 22.63 146.35 23.07 147.9 23.95L149.1 21C148.34 20.52 147.44 20.15 146.41 19.9C145.39 19.64 144.34 19.51 143.27 19.51C141.74 19.51 140.43 19.74 139.36 20.21Q137.78 20.9 136.98 22.1Q136.66 22.58 136.47 23.11Q136.19 23.87 136.19 24.74C136.19 25.86 136.48 26.76 137.06 27.43C137.65 28.1 138.35 28.59 139.17 28.9C139.98 29.2 141.03 29.5 142.31 29.81C143.14 30 143.8 30.18 144.28 30.34C144.78 30.5 145.17 30.71 145.48 30.98C145.8 31.24 145.96 31.57 145.96 31.97C145.96 32.51 145.69 32.95 145.17 33.29C144.64 33.61 143.82 33.77 142.72 33.77C141.73 33.77 140.74 33.61 139.74 33.29C138.75 32.97 137.89 32.54 137.17 32.02L135.85 34.94C136.61 35.52 137.6 35.99 138.83 36.36ZM64.12 20.54C63.04 20.05 61.75 19.8 60.26 19.8L52.99 19.8L52.99 36.6L56.88 36.6L56.88 31.97L60.26 31.97Q62.49 31.97 64.12 31.25C65.23 30.75 66.08 30.05 66.67 29.14C67.26 28.21 67.56 27.13 67.56 25.9C67.56 24.65 67.26 23.57 66.67 22.66C66.08 21.74 65.23 21.04 64.12 20.54ZM62.71 28.06C62.1 28.55 61.21 28.8 60.04 28.8L56.88 28.8L56.88 22.97L60.04 22.97Q61.8 22.97 62.71 23.74C63.32 24.23 63.62 24.95 63.62 25.9C63.62 26.82 63.32 27.54 62.71 28.06ZM92.15 23.98C91.4 24.3 90.8 24.77 90.35 25.39L90.35 23.69L86.78 23.69L86.78 36.6L90.52 36.6L90.52 30.5C90.52 29.3 90.83 28.41 91.43 27.82C92.04 27.21 92.88 26.9 93.95 26.9C94.1 26.9 94.38 26.92 94.79 26.95L94.79 23.5C93.8 23.5 92.92 23.66 92.15 23.98ZM107.92 24.34C106.94 23.78 105.85 23.5 104.65 23.5C102.88 23.5 101.52 24.06 100.6 25.18L100.6 23.69L97.02 23.69L97.02 41.26L100.76 41.26L100.76 35.23C101.71 36.27 103 36.79 104.65 36.79C105.85 36.79 106.94 36.52 107.92 35.98C108.91 35.41 109.68 34.64 110.24 33.65C110.8 32.64 111.08 31.47 111.08 30.14C111.08 28.82 110.8 27.66 110.24 26.66C109.68 25.66 108.91 24.88 107.92 24.34ZM130.05 33.5C129.54 33.7 128.95 33.79 128.27 33.79Q127 33.79 126.11 33.31C125.54 32.99 125.11 32.51 124.84 31.87L134.39 30.02Q134.39 28.05 133.52 26.6Q133.5 26.57 133.48 26.54C132.89 25.55 132.09 24.8 131.08 24.29C130.07 23.76 128.95 23.5 127.72 23.5C126.41 23.5 125.23 23.78 124.17 24.36C123.13 24.92 122.31 25.71 121.7 26.74C121.11 27.74 120.81 28.88 120.81 30.14C120.81 31.42 121.11 32.57 121.72 33.58C122.33 34.58 123.19 35.38 124.31 35.95C125.43 36.51 126.72 36.79 128.18 36.79C130.51 36.79 132.29 36.09 133.51 34.7L131.51 32.54Q130.84 33.19 130.05 33.5ZM154.74 35.95C155.84 36.51 157.08 36.79 158.46 36.79C159.82 36.79 161 36.5 162.01 35.93C163.03 35.35 163.78 34.55 164.24 33.53L161.34 31.94C160.68 33.13 159.71 33.72 158.43 33.72C157.46 33.72 156.65 33.4 156.01 32.76C155.37 32.12 155.05 31.25 155.05 30.14C155.05 29.04 155.37 28.17 156.01 27.53C156.65 26.89 157.46 26.57 158.43 26.57C159.7 26.57 160.66 27.16 161.34 28.34L164.24 26.78C163.78 25.73 163.03 24.92 162.01 24.36C161 23.78 159.82 23.5 158.46 23.5C157.08 23.5 155.84 23.78 154.74 24.36C153.65 24.92 152.79 25.7 152.17 26.71C151.56 27.72 151.25 28.86 151.25 30.14C151.25 31.42 151.56 32.57 152.17 33.58C152.79 34.58 153.65 35.38 154.74 35.95ZM185.51 35.95C186.6 36.51 187.82 36.79 189.18 36.79C190.54 36.79 191.76 36.51 192.83 35.95C193.9 35.38 194.74 34.58 195.35 33.58C195.96 32.57 196.26 31.42 196.26 30.14C196.26 28.86 195.96 27.72 195.35 26.71C194.74 25.7 193.9 24.92 192.83 24.36C191.76 23.78 190.54 23.5 189.18 23.5C187.82 23.5 186.6 23.78 185.51 24.36C184.44 24.92 183.6 25.7 182.99 26.71C182.38 27.72 182.08 28.86 182.08 30.14C182.08 31.42 182.38 32.57 182.99 33.58C183.6 34.58 184.44 35.38 185.51 35.95ZM201.23 35.95C202.32 36.51 203.55 36.79 204.91 36.79C206.27 36.79 207.48 36.51 208.55 35.95C209.63 35.38 210.47 34.58 211.07 33.58C211.68 32.57 211.99 31.42 211.99 30.14C211.99 28.86 211.68 27.72 211.07 26.71C210.47 25.7 209.63 24.92 208.55 24.36C207.48 23.78 206.27 23.5 204.91 23.5C203.55 23.5 202.32 23.78 201.23 24.36C200.16 24.92 199.32 25.7 198.71 26.71C198.11 27.72 197.8 28.86 197.8 30.14C197.8 31.42 198.11 32.57 198.71 33.58C199.32 34.58 200.16 35.38 201.23 35.95ZM83.31 36.6L83.31 23.69L79.57 23.69L79.57 30.07Q79.57 31.8 78.75 32.69C78.21 33.26 77.49 33.55 76.59 33.55Q75.51 33.55 74.88 33.02Q73.97 32.26 73.97 30.43L73.97 23.69L70.23 23.69L70.23 30.98Q70.23 33.77 71.62 35.23Q71.67 35.28 71.72 35.33C72.71 36.3 74.05 36.79 75.75 36.79Q76.88 36.79 77.85 36.41Q77.92 36.39 77.98 36.36C78.67 36.06 79.26 35.62 79.76 35.06L79.76 36.6L83.31 36.6ZM125.42 27.24C126.01 26.63 126.78 26.33 127.72 26.33C128.49 26.33 129.15 26.53 129.69 26.93C130.23 27.33 130.59 27.86 130.77 28.54L124.48 29.76C124.51 28.69 124.83 27.85 125.42 27.24ZM106.36 32.76C105.75 33.4 104.96 33.72 104 33.72Q103.12 33.72 102.42 33.35Q101.99 33.13 101.63 32.76C101.02 32.1 100.72 31.23 100.72 30.14C100.72 29.06 101.02 28.19 101.63 27.55C102.25 26.9 103.04 26.57 104 26.57C104.96 26.57 105.75 26.9 106.36 27.55C106.98 28.19 107.29 29.06 107.29 30.14C107.29 31.23 106.98 32.1 106.36 32.76ZM191.53 32.76C190.92 33.4 190.14 33.72 189.18 33.72C188.22 33.72 187.43 33.4 186.8 32.76C186.18 32.1 185.87 31.23 185.87 30.14C185.87 29.06 186.18 28.19 186.8 27.55C187.43 26.9 188.22 26.57 189.18 26.57C190.14 26.57 190.92 26.9 191.53 27.55C192.16 28.19 192.47 29.06 192.47 30.14C192.47 31.23 192.16 32.1 191.53 32.76ZM207.26 32.76C206.65 33.4 205.87 33.72 204.91 33.72C203.95 33.72 203.15 33.4 202.53 32.76C201.91 32.1 201.59 31.23 201.59 30.14C201.59 29.06 201.91 28.19 202.53 27.55C203.15 26.9 203.95 26.57 204.91 26.57C205.87 26.57 206.65 26.9 207.26 27.55C207.88 28.19 208.19 29.06 208.19 30.14C208.19 31.23 207.88 32.1 207.26 32.76Z" fill="#FAFAFA" fill-opacity="1.000000" fill-rule="evenodd"/>
</svg>
